<svg xmlns="http://www.w3.org/2000/svg" viewBox="0 0 100 100" width="100%" height="100%">
  <defs>
    <linearGradient id="bgGrad" x1="0" y1="0" x2="100" y2="100">
      <stop offset="0%" stop-color="#FF7043" />
      <stop offset="100%" stop-color="#FF5722" />
    </linearGradient>
  </defs>
  <!-- Background Circle -->
  <circle cx="50" cy="50" r="48" fill="url(#bgGrad)" />
  
  <!-- White Fork & Knife Circle graphic -->
  <circle cx="50" cy="50" r="32" stroke="#FFFFFF" stroke-width="4.5" fill="none" />
  
  <!-- Fork -->
  <!-- Handle -->
  <rect x="40.5" y="46" width="3" height="22" rx="1.5" fill="#FFFFFF" />
  <!-- Base -->
  <path d="M35.5 38 c0 5 13 5 13 0 v-8 h-13 z" fill="#FFFFFF" />
  <!-- Tines -->
  <rect x="35.5" y="26" width="2.5" height="12" rx="1" fill="#FFFFFF" />
  <rect x="40.75" y="26" width="2.5" height="12" rx="1" fill="#FFFFFF" />
  <rect x="46" y="26" width="2.5" height="12" rx="1" fill="#FFFFFF" />
  
  <!-- Knife -->
  <!-- Handle -->
  <rect x="56.5" y="46" width="3" height="22" rx="1.5" fill="#FFFFFF" />
  <!-- Blade -->
  <path d="M56.5 46 v-18 c0 -5 7 -5 7 0 v12 c0 3 -7 6 -7 6 z" fill="#FFFFFF" />
</svg>